<?xml version="1.0" encoding="utf-8"?>
<!-- Generator: Adobe Illustrator 23.1.0, SVG Export Plug-In . SVG Version: 6.00 Build 0)  -->
<svg version="1.1" id="Слой_1" xmlns="http://www.w3.org/2000/svg" xmlns:xlink="http://www.w3.org/1999/xlink" x="0px" y="0px"
	 viewBox="0 0 120 120" style="enable-background:new 0 0 120 120;" xml:space="preserve">
<style type="text/css">
	.st0{fill:#5595F4;}
</style>
<path class="st0" d="M118.72,27.68C118.56,12.91,107.49,1.9,92.67,1.69c-21.48-0.3-42.97-0.22-64.46-0.2
	C20.92,1.49,14.53,4,9.27,9.14c-5.2,5.22-7.75,11.55-7.78,18.87C1.41,49.5,1.23,71,1.39,92.48c0.12,15.06,11.19,26.15,26.3,26.32
	c21.49,0.24,42.99,0.26,64.48,0.07c15.06-0.13,26.21-11.12,26.43-26.2C118.92,71.01,118.95,49.34,118.72,27.68z M23.65,48.78
	C23.63,41.18,23.69,33.59,23.6,26c-0.02-1.89,0.59-2.52,2.5-2.48c5.52,0.11,11.04,0.04,16.56,0.04c5.38,0,10.77-0.02,16.15,0.01
	c4.3,0.02,7.23,2.8,7.24,6.78c0.01,3.93-3,6.78-7.22,6.87c-3.29,0.07-6.57-0.27-9.75,1.2c-4.35,2.01-7.54,6.99-7.43,12.17
	c0.11,5.14,3.47,10.16,8.14,11.59c2.33,0.71,4.84,0.91,7.29,1.12c3.13,0.27,5.98,2.45,6.45,5.19c0.64,3.71-0.94,6.82-4.14,8.13
	c-0.38,0.16-0.79,0.31-1.19,0.34c-8.61,0.6-16.84-0.38-23.77-6.16C27.59,65.07,23.68,57.86,23.65,48.78z M94.58,96.95
	c-6.42-0.05-12.84-0.02-19.26-0.02c-6.07,0-12.15,0.02-18.22-0.01c-4.57-0.02-7.36-2.63-7.33-6.82c0.03-4.18,2.85-6.78,7.38-6.81
	c2.76-0.02,5.52,0.01,8.28-0.04c7.97-0.16,13.9-6.54,12.96-14.4c-0.78-6.55-5.35-11.35-13.3-11.63c-2.53-0.09-4.97-0.04-6.81-2.17
	c-1.79-2.07-2.71-4.34-1.51-7.02c1.21-2.68,3.05-4.46,6.26-4.56c5.63-0.18,11.22-0.02,16.4,2.47c8.99,4.32,15.35,11.17,16.41,21.24
	c0.97,9.22,0.55,18.59,0.76,27.89C96.63,96.49,95.98,96.96,94.58,96.95z"/>
</svg>
