<?xml version="1.0" encoding="utf-8"?>
<!-- Generator: Adobe Illustrator 23.0.3, SVG Export Plug-In . SVG Version: 6.00 Build 0)  -->
<svg version="1.1" id="Слой_1" xmlns="http://www.w3.org/2000/svg" xmlns:xlink="http://www.w3.org/1999/xlink" x="0px" y="0px"
	 width="40px" height="40px" viewBox="0 0 40 40" style="enable-background:new 0 0 40 40;" xml:space="preserve">
<style type="text/css">
	.st0{fill:#EA4335;}
	.st1{fill:#FBBC05;}
	.st2{fill:#34A853;}
	.st3{fill:#4285F4;}
</style>
<g>
	<path class="st0" d="M33.2,5l-5.6,5.6c-2.1-1.7-4.7-2.7-7.6-2.7c-5.3,0-9.8,3.4-11.4,8.1c0,0,0,0,0,0l-6.5-4.9v0
		C5.3,4.5,12.2,0,20,0C25.1,0,29.7,1.9,33.2,5z"/>
	<path class="st1" d="M8.6,16.1c-0.4,1.2-0.7,2.6-0.7,3.9c0,1.4,0.2,2.7,0.6,3.9l-6.4,5.1C0.8,26.2,0,23.2,0,20
		c0-3.2,0.7-6.2,2.1-8.9L8.6,16.1C8.6,16.1,8.6,16.1,8.6,16.1z"/>
	<path class="st2" d="M33,34.9L33,34.9L33,35.2c-3.5,3-8,4.8-13,4.8c-7.8,0-14.6-4.5-17.9-11.1l6.4-5.1c1.6,4.8,6.1,8.2,11.5,8.2
		c2.5,0,4.8-0.7,6.7-2l0.1,0.1L33,34.9z"/>
	<path class="st3" d="M40,20c0,6-2.7,11.4-6.9,15.1L33,35l-6.3-4.9l-0.1-0.1c3.3-2.2,5.4-5.9,5.4-10.1c0-1.3-0.2-2.6-0.6-3.8h8.1
		C39.9,17.5,40,18.7,40,20z"/>
	<rect x="20" y="16.2" class="st3" width="19.6" height="7.9"/>
</g>
</svg>
