<svg width="306" height="93" viewBox="0 0 306 93" fill="none" xmlns="http://www.w3.org/2000/svg">
<g clip-path="url(#clip0_15_1838)">
<path d="M134.467 65.875C123.141 65.875 115.934 63.4276 115.934 56.2895C115.934 55.0658 116.758 54.25 117.993 54.25H123.141C124.789 54.25 126.024 54.8619 127.054 56.0855C128.289 57.5132 130.76 58.329 133.849 58.329C139.615 58.329 141.674 57.1053 141.674 55.0658C141.674 49.3553 116.14 52.6184 116.14 38.75C116.14 31 123.965 27.9408 133.643 27.9408C144.969 27.9408 152.176 30.3882 152.176 37.5263C152.176 38.75 151.353 39.5658 150.117 39.5658H144.969C143.322 39.5658 142.086 38.954 141.057 37.7303C139.821 36.3026 137.35 35.4868 134.261 35.4868C129.525 35.4868 127.672 36.7105 127.672 38.75C127.672 44.4605 153.206 41.1974 153.206 55.0658C153.206 62.8158 145.381 65.875 134.467 65.875Z" fill="white"/>
<path d="M170.915 37.7303C170.092 38.75 168.856 39.5658 167.003 39.5658H161.855C160.619 39.5658 159.795 38.75 159.795 37.5263C159.795 30.3882 167.003 27.9408 178.122 27.9408C188.007 27.9408 195.832 32.0197 195.832 42.625V63.2237C195.832 64.4474 195.008 65.2632 193.773 65.2632H187.183C185.948 65.2632 185.124 64.4474 185.124 63.2237V62.204C182.035 64.4474 178.122 65.875 172.769 65.875C163.708 65.875 156.707 61.7961 156.707 54.0461C156.707 46.2961 163.708 42.4211 172.769 42.4211H183.888C183.888 37.1184 181.623 35.4868 176.887 35.4868C174.828 35.4868 172.151 36.3026 170.915 37.7303ZM184.506 55.2697V49.9671H174.21C170.915 49.9671 169.062 51.8026 169.062 54.0461C169.062 56.4934 170.915 58.329 174.622 58.329C178.534 58.329 182.035 56.6974 184.506 55.2697Z" fill="white"/>
<path d="M214.365 50.375C214.777 55.8816 217.248 58.329 223.013 58.329C225.896 58.329 228.573 57.5132 229.603 56.0855C230.427 55.0658 231.662 54.25 233.515 54.25H238.664C239.899 54.25 240.723 55.0658 240.723 56.2895C240.723 63.4276 233.31 65.875 222.19 65.875C209.834 65.875 202.421 59.3487 202.421 46.9079C202.421 34.4671 209.834 27.9408 222.19 27.9408C234.545 27.9408 241.958 34.4671 241.958 46.5V48.3355C241.958 49.5592 241.135 50.375 239.899 50.375H214.365ZM214.365 43.4408H230.015C229.809 38.3421 227.338 35.4868 222.19 35.4868C217.248 35.4868 214.571 38.1382 214.365 43.4408Z" fill="white"/>
<path d="M246.077 46.9079C246.077 34.2632 253.49 27.9408 264.198 27.9408C268.316 27.9408 271.199 28.7566 273.876 29.5724V19.375C273.876 18.1514 274.7 17.3356 275.935 17.3356H283.555C284.79 17.3356 285.614 18.1514 285.614 19.375V63.2237C285.614 64.4474 284.79 65.2632 283.555 65.2632H276.965C275.729 65.2632 274.906 64.4474 274.906 63.2237V62.204C271.817 64.4474 267.904 65.875 262.962 65.875C253.284 65.875 246.077 59.5527 246.077 46.9079ZM274.082 54.8619V37.3224C271.199 36.5066 268.522 35.8948 266.669 35.8948C260.491 35.8948 258.226 39.1579 258.226 46.9079C258.226 54.454 260.491 57.7172 266.051 57.7172C268.522 57.7172 271.611 56.2895 274.082 54.8619Z" fill="white"/>
<path d="M294.057 20.3948C294.057 17.9474 295.498 16.5198 297.969 16.5198H302.293C304.764 16.5198 306.206 17.9474 306.206 20.3948V21.6185C306.206 24.0658 304.764 25.4935 302.293 25.4935H297.969C295.498 25.4935 294.057 24.0658 294.057 21.6185V20.3948ZM296.322 65.2632C295.086 65.2632 294.262 64.4474 294.262 63.2237V31.4079C294.262 30.1842 295.086 29.3685 296.322 29.3685H303.941C305.176 29.3685 306 30.1842 306 31.4079V63.2237C306 64.4474 305.176 65.2632 303.941 65.2632H296.322Z" fill="white"/>
<path d="M93.6945 20.8026C93.4885 9.17763 84.6339 0.407895 72.8964 0.203947C55.8048 0 38.7133 0 21.4159 0C15.6501 0 10.502 2.03947 6.38358 6.11842C2.26514 10.1974 0.205922 15.2961 0.205922 21.0066C0 37.9342 0 55.0658 0 71.9934C0 83.8224 8.85464 92.5921 21.004 92.7961C38.0956 93 55.393 93 72.4845 92.7961C84.428 92.5921 93.4885 84.0263 93.4885 71.9934C93.9004 55.0658 93.9004 37.9342 93.6945 20.8026ZM17.9152 37.3224C17.9152 31.4079 17.9152 25.2895 17.9152 19.375C17.9152 17.9474 18.327 17.3355 19.9744 17.3355C24.2988 17.3355 28.8291 17.3355 33.1534 17.3355C37.4778 17.3355 41.8021 17.3355 46.1265 17.3355C49.6272 17.3355 51.8923 19.5789 51.8923 22.6382C51.8923 25.6974 49.4213 27.9408 46.1265 28.1447C43.4495 28.1447 40.9785 27.9408 38.3015 29.1645C34.8008 30.7961 32.3297 34.6711 32.3297 38.75C32.3297 42.8289 35.0067 46.7039 38.9192 47.9276C40.7725 48.5395 42.8318 48.7434 44.6851 48.7434C47.1561 48.9474 49.4213 50.5789 49.8331 52.8224C50.2449 55.6776 49.0094 58.125 46.5384 59.3487C46.3324 59.5526 45.9206 59.5526 45.5087 59.5526C38.7133 59.9605 32.1238 59.3487 26.5639 54.6579C21.004 50.375 17.9152 44.6645 17.9152 37.3224ZM74.3378 75.4605C69.1898 75.4605 64.0417 75.4605 58.8937 75.4605C53.9515 75.4605 49.2153 75.4605 44.2732 75.4605C40.5666 75.4605 38.3015 73.4211 38.5074 70.1579C38.5074 66.8947 40.7725 64.8553 44.4791 64.8553C46.7443 64.8553 48.8035 64.8553 51.0686 64.8553C57.4522 64.6513 62.1884 59.7566 61.3647 53.4342C60.747 48.3355 57.0404 44.4605 50.6568 44.2566C48.5976 44.2566 46.7443 44.2566 45.3028 42.625C43.8614 40.9934 43.0377 39.1579 44.0673 37.1184C45.0969 35.0789 46.5383 33.6513 49.0094 33.4474C53.5397 33.2434 57.8641 33.4474 62.1884 35.4868C69.3957 38.9539 74.3378 44.2566 75.3674 52.2105C76.1911 59.5526 75.7793 66.8947 75.9852 74.2368C75.9852 75.0526 75.5733 75.4605 74.3378 75.4605Z" fill="white"/>
</g>
<defs>
<clipPath id="clip0_15_1838">
<rect width="306" height="93" fill="white"/>
</clipPath>
</defs>
</svg>
