<svg width="109" height="33" viewBox="0 0 109 33" fill="none" xmlns="http://www.w3.org/2000/svg">
<g clip-path="url(#clip0_15_3693)">
<path d="M47.8984 23.375C43.8641 23.375 41.2968 22.5065 41.2968 19.9736C41.2968 19.5394 41.5902 19.25 42.0303 19.25H43.864C44.4509 19.25 44.891 19.4671 45.2577 19.9013C45.6978 20.4079 46.578 20.6973 47.6783 20.6973C49.7321 20.6973 50.4657 20.2631 50.4657 19.5394C50.4657 17.5131 41.3701 18.671 41.3701 13.75C41.3701 11 44.1575 9.91443 47.605 9.91443C51.6393 9.91443 54.2066 10.7828 54.2066 13.3157C54.2066 13.75 53.9132 14.0394 53.4731 14.0394H51.6393C51.0525 14.0394 50.6124 13.8223 50.2456 13.3881C49.8055 12.8815 48.9253 12.5921 47.825 12.5921C46.1379 12.5921 45.4778 13.0263 45.4778 13.75C45.4778 15.7763 54.5733 14.6184 54.5733 19.5394C54.5733 22.2894 51.786 23.375 47.8984 23.375Z" fill="#5494F2"/>
<path d="M60.8816 13.3881C60.5881 13.75 60.148 14.0394 59.4879 14.0394H57.6541C57.214 14.0394 56.9206 13.75 56.9206 13.3157C56.9206 10.7828 59.4879 9.91443 63.4488 9.91443C66.9697 9.91443 69.7571 11.3618 69.7571 15.125V22.4342C69.7571 22.8684 69.4636 23.1579 69.0235 23.1579H66.6763C66.2362 23.1579 65.9428 22.8684 65.9428 22.4342V22.0723C64.8425 22.8684 63.4488 23.375 61.5417 23.375C58.3143 23.375 55.8203 21.9276 55.8203 19.1776C55.8203 16.4276 58.3143 15.0526 61.5417 15.0526H65.5027C65.5027 13.171 64.6958 12.5921 63.0087 12.5921C62.2752 12.5921 61.3217 12.8815 60.8816 13.3881ZM65.7227 19.6118V17.7302H62.0552C60.8816 17.7302 60.2214 18.3815 60.2214 19.1776C60.2214 20.046 60.8816 20.6973 62.2019 20.6973C63.5956 20.6973 64.8425 20.1184 65.7227 19.6118Z" fill="#5494F2"/>
<path d="M76.3587 17.875C76.5054 19.8289 77.3856 20.6973 79.4394 20.6973C80.4664 20.6973 81.4199 20.4079 81.7867 19.9013C82.0801 19.5394 82.5202 19.25 83.1804 19.25H85.0141C85.4542 19.25 85.7476 19.5394 85.7476 19.9736C85.7476 22.5065 83.107 23.375 79.146 23.375C74.745 23.375 72.1043 21.0592 72.1043 16.6447C72.1043 12.2302 74.745 9.91443 79.146 9.91443C83.5471 9.91443 86.1878 12.2302 86.1878 16.5V17.1513C86.1878 17.5855 85.8943 17.875 85.4542 17.875H76.3587ZM76.3587 15.4144H81.9334C81.86 13.6052 80.9798 12.5921 79.146 12.5921C77.3856 12.5921 76.432 13.5328 76.3587 15.4144Z" fill="#5494F2"/>
<path d="M87.6548 16.6447C87.6548 12.1578 90.2954 9.9144 94.1097 9.9144C95.5767 9.9144 96.6036 10.2039 97.5572 10.4934V6.87493C97.5572 6.44072 97.8506 6.15125 98.2907 6.15125H101.005C101.445 6.15125 101.738 6.44072 101.738 6.87493V22.4341C101.738 22.8684 101.445 23.1578 101.005 23.1578H98.6575C98.2174 23.1578 97.924 22.8684 97.924 22.4341V22.0723C96.8237 22.8684 95.43 23.3749 93.6696 23.3749C90.2221 23.3749 87.6548 21.1315 87.6548 16.6447ZM97.6306 19.467V13.2434C96.6036 12.9539 95.6501 12.7368 94.9899 12.7368C92.7894 12.7368 91.9825 13.8947 91.9825 16.6447C91.9825 19.3223 92.7894 20.4802 94.7699 20.4802C95.6501 20.4802 96.7503 19.9736 97.6306 19.467Z" fill="#5494F2"/>
<path d="M104.746 7.23682C104.746 6.36839 105.259 5.86182 106.139 5.86182H107.68C108.56 5.86182 109.073 6.36839 109.073 7.23682V7.67103C109.073 8.53945 108.56 9.04603 107.68 9.04603H106.139C105.259 9.04603 104.746 8.53945 104.746 7.67103V7.23682ZM105.552 23.1579C105.112 23.1579 104.819 22.8684 104.819 22.4342V11.1447C104.819 10.7105 105.112 10.421 105.552 10.421H108.266C108.707 10.421 109 10.7105 109 11.1447V22.4342C109 22.8684 108.707 23.1579 108.266 23.1579H105.552Z" fill="#5494F2"/>
<path d="M33.3748 7.38158C33.3015 3.25658 30.1474 0.144737 25.9664 0.0723684C19.8782 0 13.79 0 7.62853 0C5.5747 0 3.74092 0.723684 2.27389 2.17105C0.806864 3.61842 0.0733513 5.42763 0.0733513 7.45395C0 13.4605 0 19.5395 0 25.5461C0 29.7434 3.1541 32.8553 7.48183 32.9276C13.57 33 19.7315 33 25.8196 32.9276C30.074 32.8553 33.3015 29.8158 33.3015 25.5461C33.4482 19.5395 33.4482 13.4605 33.3748 7.38158ZM6.38156 13.2434C6.38156 11.1447 6.38156 8.97368 6.38156 6.875C6.38156 6.36842 6.52826 6.15132 7.11507 6.15132C8.65545 6.15132 10.2692 6.15132 11.8096 6.15132C13.3499 6.15132 14.8903 6.15132 16.4307 6.15132C17.6777 6.15132 18.4845 6.94737 18.4845 8.0329C18.4845 9.11842 17.6043 9.91447 16.4307 9.98684C15.4771 9.98684 14.5969 9.91447 13.6433 10.3487C12.3964 10.9276 11.5162 12.3026 11.5162 13.75C11.5162 15.1974 12.4697 16.5724 13.8634 17.0066C14.5236 17.2237 15.2571 17.2961 15.9172 17.2961C16.7974 17.3684 17.6043 17.9474 17.751 18.7434C17.8977 19.7566 17.4576 20.625 16.5774 21.0592C16.504 21.1316 16.3573 21.1316 16.2106 21.1316C13.79 21.2763 11.4428 21.0592 9.46231 19.3947C7.48183 17.875 6.38156 15.8487 6.38156 13.2434ZM26.4798 26.7763C24.646 26.7763 22.8122 26.7763 20.9785 26.7763C19.218 26.7763 17.531 26.7763 15.7705 26.7763C14.4502 26.7763 13.6433 26.0526 13.7167 24.8947C13.7167 23.7368 14.5236 23.0132 15.8439 23.0132C16.6507 23.0132 17.3843 23.0132 18.1911 23.0132C20.465 22.9408 22.1521 21.2039 21.8587 18.9605C21.6386 17.1513 20.3183 15.7763 18.0444 15.7039C17.3109 15.7039 16.6507 15.7039 16.1373 15.125C15.6238 14.5461 15.3304 13.8947 15.6972 13.1711C16.0639 12.4474 16.5774 11.9408 17.4576 11.8684C19.0713 11.7961 20.6117 11.8684 22.1521 12.5921C24.7194 13.8224 26.4798 15.7039 26.8466 18.5263C27.14 21.1316 26.9933 23.7368 27.0666 26.3421C27.0666 26.6316 26.9199 26.7763 26.4798 26.7763Z" fill="#5494F2"/>
</g>
<defs>
<clipPath id="clip0_15_3693">
<rect width="109" height="33" fill="white"/>
</clipPath>
</defs>
</svg>
